<?xml version="1.0" encoding="UTF-8"?>
<svg xmlns="http://www.w3.org/2000/svg" xmlns:xlink="http://www.w3.org/1999/xlink" width="720pt" height="360pt" viewBox="0 0 720 360" version="1.1">
<g id="surface14">
<rect x="0" y="0" width="720" height="360" style="fill:rgb(100%,100%,100%);fill-opacity:1;stroke:none;"/>
<path style=" stroke:none;fill-rule:nonzero;fill:rgb(9.803922%,36.078431%,13.72549%);fill-opacity:0.501961;" d="M 32.726562 343.636719 L 54.542969 343.636719 L 54.542969 302.726562 L 32.726562 302.726562 Z M 32.726562 343.636719 "/>
<path style=" stroke:none;fill-rule:nonzero;fill:rgb(9.803922%,36.078431%,13.72549%);fill-opacity:0.501961;" d="M 54.546875 343.636719 L 76.363281 343.636719 L 76.363281 302.726562 L 54.546875 302.726562 Z M 54.546875 343.636719 "/>
<path style=" stroke:none;fill-rule:nonzero;fill:rgb(9.803922%,36.078431%,13.72549%);fill-opacity:0.501961;" d="M 76.363281 343.636719 L 98.179688 343.636719 L 98.179688 302.726562 L 76.363281 302.726562 Z M 76.363281 343.636719 "/>
<path style=" stroke:none;fill-rule:nonzero;fill:rgb(9.803922%,36.078431%,13.72549%);fill-opacity:0.501961;" d="M 98.183594 343.636719 L 120 343.636719 L 120 302.726562 L 98.183594 302.726562 Z M 98.183594 343.636719 "/>
<path style=" stroke:none;fill-rule:nonzero;fill:rgb(9.803922%,36.078431%,13.72549%);fill-opacity:0.501961;" d="M 120 343.636719 L 141.816406 343.636719 L 141.816406 261.820312 L 120 261.820312 Z M 120 343.636719 "/>
<path style=" stroke:none;fill-rule:nonzero;fill:rgb(9.803922%,36.078431%,13.72549%);fill-opacity:0.501961;" d="M 163.636719 343.636719 L 185.453125 343.636719 L 185.453125 302.726562 L 163.636719 302.726562 Z M 163.636719 343.636719 "/>
<path style=" stroke:none;fill-rule:nonzero;fill:rgb(9.803922%,36.078431%,13.72549%);fill-opacity:0.501961;" d="M 185.453125 343.636719 L 207.269531 343.636719 L 207.269531 180 L 185.453125 180 Z M 185.453125 343.636719 "/>
<path style=" stroke:none;fill-rule:nonzero;fill:rgb(9.803922%,36.078431%,13.72549%);fill-opacity:0.501961;" d="M 207.273438 343.636719 L 229.089844 343.636719 L 229.089844 302.726562 L 207.273438 302.726562 Z M 207.273438 343.636719 "/>
<path style=" stroke:none;fill-rule:nonzero;fill:rgb(9.803922%,36.078431%,13.72549%);fill-opacity:0.501961;" d="M 229.089844 343.636719 L 250.90625 343.636719 L 250.90625 139.089844 L 229.089844 139.089844 Z M 229.089844 343.636719 "/>
<path style=" stroke:none;fill-rule:nonzero;fill:rgb(9.803922%,36.078431%,13.72549%);fill-opacity:0.501961;" d="M 250.910156 343.636719 L 272.726562 343.636719 L 272.726562 261.820312 L 250.910156 261.820312 Z M 250.910156 343.636719 "/>
<path style=" stroke:none;fill-rule:nonzero;fill:rgb(9.803922%,36.078431%,13.72549%);fill-opacity:0.501961;" d="M 272.726562 343.636719 L 294.542969 343.636719 L 294.542969 57.273438 L 272.726562 57.273438 Z M 272.726562 343.636719 "/>
<path style=" stroke:none;fill-rule:nonzero;fill:rgb(9.803922%,36.078431%,13.72549%);fill-opacity:0.501961;" d="M 294.546875 343.636719 L 316.363281 343.636719 L 316.363281 57.273438 L 294.546875 57.273438 Z M 294.546875 343.636719 "/>
<path style=" stroke:none;fill-rule:nonzero;fill:rgb(9.803922%,36.078431%,13.72549%);fill-opacity:0.501961;" d="M 316.363281 343.636719 L 338.179688 343.636719 L 338.179688 139.089844 L 316.363281 139.089844 Z M 316.363281 343.636719 "/>
<path style=" stroke:none;fill-rule:nonzero;fill:rgb(9.803922%,36.078431%,13.72549%);fill-opacity:0.501961;" d="M 338.183594 343.636719 L 360 343.636719 L 360 139.089844 L 338.183594 139.089844 Z M 338.183594 343.636719 "/>
<path style=" stroke:none;fill-rule:nonzero;fill:rgb(9.803922%,36.078431%,13.72549%);fill-opacity:0.501961;" d="M 360 343.636719 L 381.816406 343.636719 L 381.816406 16.363281 L 360 16.363281 Z M 360 343.636719 "/>
<path style=" stroke:none;fill-rule:nonzero;fill:rgb(9.803922%,36.078431%,13.72549%);fill-opacity:0.501961;" d="M 381.816406 343.636719 L 403.632812 343.636719 L 403.632812 139.089844 L 381.816406 139.089844 Z M 381.816406 343.636719 "/>
<path style=" stroke:none;fill-rule:nonzero;fill:rgb(9.803922%,36.078431%,13.72549%);fill-opacity:0.501961;" d="M 403.636719 343.636719 L 425.453125 343.636719 L 425.453125 98.183594 L 403.636719 98.183594 Z M 403.636719 343.636719 "/>
<path style=" stroke:none;fill-rule:nonzero;fill:rgb(9.803922%,36.078431%,13.72549%);fill-opacity:0.501961;" d="M 425.453125 343.636719 L 447.269531 343.636719 L 447.269531 57.273438 L 425.453125 57.273438 Z M 425.453125 343.636719 "/>
<path style=" stroke:none;fill-rule:nonzero;fill:rgb(9.803922%,36.078431%,13.72549%);fill-opacity:0.501961;" d="M 447.273438 343.636719 L 469.089844 343.636719 L 469.089844 139.089844 L 447.273438 139.089844 Z M 447.273438 343.636719 "/>
<path style=" stroke:none;fill-rule:nonzero;fill:rgb(9.803922%,36.078431%,13.72549%);fill-opacity:0.501961;" d="M 469.089844 343.636719 L 490.90625 343.636719 L 490.90625 57.273438 L 469.089844 57.273438 Z M 469.089844 343.636719 "/>
<path style=" stroke:none;fill-rule:nonzero;fill:rgb(9.803922%,36.078431%,13.72549%);fill-opacity:0.501961;" d="M 490.910156 343.636719 L 512.726562 343.636719 L 512.726562 180 L 490.910156 180 Z M 490.910156 343.636719 "/>
<path style=" stroke:none;fill-rule:nonzero;fill:rgb(9.803922%,36.078431%,13.72549%);fill-opacity:0.501961;" d="M 512.726562 343.636719 L 534.542969 343.636719 L 534.542969 180 L 512.726562 180 Z M 512.726562 343.636719 "/>
<path style=" stroke:none;fill-rule:nonzero;fill:rgb(9.803922%,36.078431%,13.72549%);fill-opacity:0.501961;" d="M 534.546875 343.636719 L 556.363281 343.636719 L 556.363281 139.089844 L 534.546875 139.089844 Z M 534.546875 343.636719 "/>
<path style=" stroke:none;fill-rule:nonzero;fill:rgb(9.803922%,36.078431%,13.72549%);fill-opacity:0.501961;" d="M 556.363281 343.636719 L 578.179688 343.636719 L 578.179688 261.820312 L 556.363281 261.820312 Z M 556.363281 343.636719 "/>
<path style=" stroke:none;fill-rule:nonzero;fill:rgb(9.803922%,36.078431%,13.72549%);fill-opacity:0.501961;" d="M 600 343.636719 L 621.816406 343.636719 L 621.816406 220.910156 L 600 220.910156 Z M 600 343.636719 "/>
<path style=" stroke:none;fill-rule:nonzero;fill:rgb(9.803922%,36.078431%,13.72549%);fill-opacity:0.501961;" d="M 665.453125 343.636719 L 687.269531 343.636719 L 687.269531 302.726562 L 665.453125 302.726562 Z M 665.453125 343.636719 "/>
<path style="fill:none;stroke-width:4.267913;stroke-linecap:butt;stroke-linejoin:round;stroke:rgb(9.803922%,36.078431%,13.72549%);stroke-opacity:1;stroke-miterlimit:10;" d="M 375.253906 360 L 375.253906 0 "/>
</g>
</svg>
