<?xml version="1.0" encoding="UTF-8"?>
<svg xmlns="http://www.w3.org/2000/svg" xmlns:xlink="http://www.w3.org/1999/xlink" width="720pt" height="360pt" viewBox="0 0 720 360" version="1.1">
<g id="surface14">
<rect x="0" y="0" width="720" height="360" style="fill:rgb(100%,100%,100%);fill-opacity:1;stroke:none;"/>
<path style="fill-rule:nonzero;fill:rgb(9.803922%,36.078431%,13.72549%);fill-opacity:1;stroke-width:0.708661;stroke-linecap:round;stroke-linejoin:round;stroke:rgb(9.803922%,36.078431%,13.72549%);stroke-opacity:1;stroke-miterlimit:10;" d="M 43.75 343.636719 C 43.75 349.726562 38.816406 354.660156 32.726562 354.660156 C 26.640625 354.660156 21.703125 349.726562 21.703125 343.636719 C 21.703125 337.546875 26.640625 332.613281 32.726562 332.613281 C 38.816406 332.613281 43.75 337.546875 43.75 343.636719 "/>
<path style="fill-rule:nonzero;fill:rgb(9.803922%,36.078431%,13.72549%);fill-opacity:1;stroke-width:0.708661;stroke-linecap:round;stroke-linejoin:round;stroke:rgb(9.803922%,36.078431%,13.72549%);stroke-opacity:1;stroke-miterlimit:10;" d="M 116.480469 343.636719 C 116.480469 349.726562 111.542969 354.660156 105.453125 354.660156 C 99.367188 354.660156 94.429688 349.726562 94.429688 343.636719 C 94.429688 337.546875 99.367188 332.613281 105.453125 332.613281 C 111.542969 332.613281 116.480469 337.546875 116.480469 343.636719 "/>
<path style="fill-rule:nonzero;fill:rgb(9.803922%,36.078431%,13.72549%);fill-opacity:1;stroke-width:0.708661;stroke-linecap:round;stroke-linejoin:round;stroke:rgb(9.803922%,36.078431%,13.72549%);stroke-opacity:1;stroke-miterlimit:10;" d="M 189.207031 343.636719 C 189.207031 349.726562 184.269531 354.660156 178.183594 354.660156 C 172.09375 354.660156 167.15625 349.726562 167.15625 343.636719 C 167.15625 337.546875 172.09375 332.613281 178.183594 332.613281 C 184.269531 332.613281 189.207031 337.546875 189.207031 343.636719 "/>
<path style="fill-rule:nonzero;fill:rgb(9.803922%,36.078431%,13.72549%);fill-opacity:1;stroke-width:0.708661;stroke-linecap:round;stroke-linejoin:round;stroke:rgb(9.803922%,36.078431%,13.72549%);stroke-opacity:1;stroke-miterlimit:10;" d="M 261.933594 343.636719 C 261.933594 349.726562 256.996094 354.660156 250.910156 354.660156 C 244.820312 354.660156 239.886719 349.726562 239.886719 343.636719 C 239.886719 337.546875 244.820312 332.613281 250.910156 332.613281 C 256.996094 332.613281 261.933594 337.546875 261.933594 343.636719 "/>
<path style="fill-rule:nonzero;fill:rgb(9.803922%,36.078431%,13.72549%);fill-opacity:1;stroke-width:0.708661;stroke-linecap:round;stroke-linejoin:round;stroke:rgb(9.803922%,36.078431%,13.72549%);stroke-opacity:1;stroke-miterlimit:10;" d="M 334.660156 343.636719 C 334.660156 349.726562 329.726562 354.660156 323.636719 354.660156 C 317.546875 354.660156 312.613281 349.726562 312.613281 343.636719 C 312.613281 337.546875 317.546875 332.613281 323.636719 332.613281 C 329.726562 332.613281 334.660156 337.546875 334.660156 343.636719 "/>
<path style="fill-rule:nonzero;fill:rgb(9.803922%,36.078431%,13.72549%);fill-opacity:1;stroke-width:0.708661;stroke-linecap:round;stroke-linejoin:round;stroke:rgb(9.803922%,36.078431%,13.72549%);stroke-opacity:1;stroke-miterlimit:10;" d="M 407.386719 343.636719 C 407.386719 349.726562 402.453125 354.660156 396.363281 354.660156 C 390.273438 354.660156 385.339844 349.726562 385.339844 343.636719 C 385.339844 337.546875 390.273438 332.613281 396.363281 332.613281 C 402.453125 332.613281 407.386719 337.546875 407.386719 343.636719 "/>
<path style="fill-rule:nonzero;fill:rgb(9.803922%,36.078431%,13.72549%);fill-opacity:1;stroke-width:0.708661;stroke-linecap:round;stroke-linejoin:round;stroke:rgb(9.803922%,36.078431%,13.72549%);stroke-opacity:1;stroke-miterlimit:10;" d="M 480.113281 343.636719 C 480.113281 349.726562 475.179688 354.660156 469.089844 354.660156 C 463.003906 354.660156 458.066406 349.726562 458.066406 343.636719 C 458.066406 337.546875 463.003906 332.613281 469.089844 332.613281 C 475.179688 332.613281 480.113281 337.546875 480.113281 343.636719 "/>
<path style="fill-rule:nonzero;fill:rgb(9.803922%,36.078431%,13.72549%);fill-opacity:1;stroke-width:0.708661;stroke-linecap:round;stroke-linejoin:round;stroke:rgb(9.803922%,36.078431%,13.72549%);stroke-opacity:1;stroke-miterlimit:10;" d="M 552.84375 343.636719 C 552.84375 349.726562 547.90625 354.660156 541.816406 354.660156 C 535.730469 354.660156 530.792969 349.726562 530.792969 343.636719 C 530.792969 337.546875 535.730469 332.613281 541.816406 332.613281 C 547.90625 332.613281 552.84375 337.546875 552.84375 343.636719 "/>
<path style="fill-rule:nonzero;fill:rgb(9.803922%,36.078431%,13.72549%);fill-opacity:1;stroke-width:0.708661;stroke-linecap:round;stroke-linejoin:round;stroke:rgb(9.803922%,36.078431%,13.72549%);stroke-opacity:1;stroke-miterlimit:10;" d="M 625.570312 343.636719 C 625.570312 349.726562 620.632812 354.660156 614.546875 354.660156 C 608.457031 354.660156 603.519531 349.726562 603.519531 343.636719 C 603.519531 337.546875 608.457031 332.613281 614.546875 332.613281 C 620.632812 332.613281 625.570312 337.546875 625.570312 343.636719 "/>
<path style="fill-rule:nonzero;fill:rgb(9.803922%,36.078431%,13.72549%);fill-opacity:1;stroke-width:0.708661;stroke-linecap:round;stroke-linejoin:round;stroke:rgb(9.803922%,36.078431%,13.72549%);stroke-opacity:1;stroke-miterlimit:10;" d="M 698.296875 343.636719 C 698.296875 349.726562 693.359375 354.660156 687.273438 354.660156 C 681.183594 354.660156 676.25 349.726562 676.25 343.636719 C 676.25 337.546875 681.183594 332.613281 687.273438 332.613281 C 693.359375 332.613281 698.296875 337.546875 698.296875 343.636719 "/>
<path style="fill-rule:nonzero;fill:rgb(9.803922%,36.078431%,13.72549%);fill-opacity:1;stroke-width:0.708661;stroke-linecap:round;stroke-linejoin:round;stroke:rgb(9.803922%,36.078431%,13.72549%);stroke-opacity:1;stroke-miterlimit:10;" d="M 43.75 307.273438 C 43.75 313.359375 38.816406 318.296875 32.726562 318.296875 C 26.640625 318.296875 21.703125 313.359375 21.703125 307.273438 C 21.703125 301.183594 26.640625 296.25 32.726562 296.25 C 38.816406 296.25 43.75 301.183594 43.75 307.273438 "/>
<path style="fill-rule:nonzero;fill:rgb(9.803922%,36.078431%,13.72549%);fill-opacity:1;stroke-width:0.708661;stroke-linecap:round;stroke-linejoin:round;stroke:rgb(9.803922%,36.078431%,13.72549%);stroke-opacity:1;stroke-miterlimit:10;" d="M 116.480469 307.273438 C 116.480469 313.359375 111.542969 318.296875 105.453125 318.296875 C 99.367188 318.296875 94.429688 313.359375 94.429688 307.273438 C 94.429688 301.183594 99.367188 296.25 105.453125 296.25 C 111.542969 296.25 116.480469 301.183594 116.480469 307.273438 "/>
<path style="fill-rule:nonzero;fill:rgb(9.803922%,36.078431%,13.72549%);fill-opacity:1;stroke-width:0.708661;stroke-linecap:round;stroke-linejoin:round;stroke:rgb(9.803922%,36.078431%,13.72549%);stroke-opacity:1;stroke-miterlimit:10;" d="M 189.207031 307.273438 C 189.207031 313.359375 184.269531 318.296875 178.183594 318.296875 C 172.09375 318.296875 167.15625 313.359375 167.15625 307.273438 C 167.15625 301.183594 172.09375 296.25 178.183594 296.25 C 184.269531 296.25 189.207031 301.183594 189.207031 307.273438 "/>
<path style="fill-rule:nonzero;fill:rgb(9.803922%,36.078431%,13.72549%);fill-opacity:1;stroke-width:0.708661;stroke-linecap:round;stroke-linejoin:round;stroke:rgb(9.803922%,36.078431%,13.72549%);stroke-opacity:1;stroke-miterlimit:10;" d="M 261.933594 307.273438 C 261.933594 313.359375 256.996094 318.296875 250.910156 318.296875 C 244.820312 318.296875 239.886719 313.359375 239.886719 307.273438 C 239.886719 301.183594 244.820312 296.25 250.910156 296.25 C 256.996094 296.25 261.933594 301.183594 261.933594 307.273438 "/>
<path style="fill-rule:nonzero;fill:rgb(9.803922%,36.078431%,13.72549%);fill-opacity:1;stroke-width:0.708661;stroke-linecap:round;stroke-linejoin:round;stroke:rgb(9.803922%,36.078431%,13.72549%);stroke-opacity:1;stroke-miterlimit:10;" d="M 334.660156 307.273438 C 334.660156 313.359375 329.726562 318.296875 323.636719 318.296875 C 317.546875 318.296875 312.613281 313.359375 312.613281 307.273438 C 312.613281 301.183594 317.546875 296.25 323.636719 296.25 C 329.726562 296.25 334.660156 301.183594 334.660156 307.273438 "/>
<path style="fill-rule:nonzero;fill:rgb(9.803922%,36.078431%,13.72549%);fill-opacity:1;stroke-width:0.708661;stroke-linecap:round;stroke-linejoin:round;stroke:rgb(9.803922%,36.078431%,13.72549%);stroke-opacity:1;stroke-miterlimit:10;" d="M 407.386719 307.273438 C 407.386719 313.359375 402.453125 318.296875 396.363281 318.296875 C 390.273438 318.296875 385.339844 313.359375 385.339844 307.273438 C 385.339844 301.183594 390.273438 296.25 396.363281 296.25 C 402.453125 296.25 407.386719 301.183594 407.386719 307.273438 "/>
<path style="fill-rule:nonzero;fill:rgb(9.803922%,36.078431%,13.72549%);fill-opacity:1;stroke-width:0.708661;stroke-linecap:round;stroke-linejoin:round;stroke:rgb(9.803922%,36.078431%,13.72549%);stroke-opacity:1;stroke-miterlimit:10;" d="M 480.113281 307.273438 C 480.113281 313.359375 475.179688 318.296875 469.089844 318.296875 C 463.003906 318.296875 458.066406 313.359375 458.066406 307.273438 C 458.066406 301.183594 463.003906 296.25 469.089844 296.25 C 475.179688 296.25 480.113281 301.183594 480.113281 307.273438 "/>
<path style="fill-rule:nonzero;fill:rgb(9.803922%,36.078431%,13.72549%);fill-opacity:1;stroke-width:0.708661;stroke-linecap:round;stroke-linejoin:round;stroke:rgb(9.803922%,36.078431%,13.72549%);stroke-opacity:1;stroke-miterlimit:10;" d="M 552.84375 307.273438 C 552.84375 313.359375 547.90625 318.296875 541.816406 318.296875 C 535.730469 318.296875 530.792969 313.359375 530.792969 307.273438 C 530.792969 301.183594 535.730469 296.25 541.816406 296.25 C 547.90625 296.25 552.84375 301.183594 552.84375 307.273438 "/>
<path style="fill-rule:nonzero;fill:rgb(9.803922%,36.078431%,13.72549%);fill-opacity:1;stroke-width:0.708661;stroke-linecap:round;stroke-linejoin:round;stroke:rgb(9.803922%,36.078431%,13.72549%);stroke-opacity:1;stroke-miterlimit:10;" d="M 625.570312 307.273438 C 625.570312 313.359375 620.632812 318.296875 614.546875 318.296875 C 608.457031 318.296875 603.519531 313.359375 603.519531 307.273438 C 603.519531 301.183594 608.457031 296.25 614.546875 296.25 C 620.632812 296.25 625.570312 301.183594 625.570312 307.273438 "/>
<path style="fill-rule:nonzero;fill:rgb(9.803922%,36.078431%,13.72549%);fill-opacity:1;stroke-width:0.708661;stroke-linecap:round;stroke-linejoin:round;stroke:rgb(9.803922%,36.078431%,13.72549%);stroke-opacity:1;stroke-miterlimit:10;" d="M 698.296875 307.273438 C 698.296875 313.359375 693.359375 318.296875 687.273438 318.296875 C 681.183594 318.296875 676.25 313.359375 676.25 307.273438 C 676.25 301.183594 681.183594 296.25 687.273438 296.25 C 693.359375 296.25 698.296875 301.183594 698.296875 307.273438 "/>
<path style="fill-rule:nonzero;fill:rgb(9.803922%,36.078431%,13.72549%);fill-opacity:1;stroke-width:0.708661;stroke-linecap:round;stroke-linejoin:round;stroke:rgb(9.803922%,36.078431%,13.72549%);stroke-opacity:1;stroke-miterlimit:10;" d="M 43.75 270.910156 C 43.75 276.996094 38.816406 281.933594 32.726562 281.933594 C 26.640625 281.933594 21.703125 276.996094 21.703125 270.910156 C 21.703125 264.820312 26.640625 259.886719 32.726562 259.886719 C 38.816406 259.886719 43.75 264.820312 43.75 270.910156 "/>
<path style="fill-rule:nonzero;fill:rgb(9.803922%,36.078431%,13.72549%);fill-opacity:1;stroke-width:0.708661;stroke-linecap:round;stroke-linejoin:round;stroke:rgb(9.803922%,36.078431%,13.72549%);stroke-opacity:1;stroke-miterlimit:10;" d="M 116.480469 270.910156 C 116.480469 276.996094 111.542969 281.933594 105.453125 281.933594 C 99.367188 281.933594 94.429688 276.996094 94.429688 270.910156 C 94.429688 264.820312 99.367188 259.886719 105.453125 259.886719 C 111.542969 259.886719 116.480469 264.820312 116.480469 270.910156 "/>
<path style="fill-rule:nonzero;fill:rgb(9.803922%,36.078431%,13.72549%);fill-opacity:1;stroke-width:0.708661;stroke-linecap:round;stroke-linejoin:round;stroke:rgb(9.803922%,36.078431%,13.72549%);stroke-opacity:1;stroke-miterlimit:10;" d="M 189.207031 270.910156 C 189.207031 276.996094 184.269531 281.933594 178.183594 281.933594 C 172.09375 281.933594 167.15625 276.996094 167.15625 270.910156 C 167.15625 264.820312 172.09375 259.886719 178.183594 259.886719 C 184.269531 259.886719 189.207031 264.820312 189.207031 270.910156 "/>
<path style="fill-rule:nonzero;fill:rgb(9.803922%,36.078431%,13.72549%);fill-opacity:1;stroke-width:0.708661;stroke-linecap:round;stroke-linejoin:round;stroke:rgb(9.803922%,36.078431%,13.72549%);stroke-opacity:1;stroke-miterlimit:10;" d="M 261.933594 270.910156 C 261.933594 276.996094 256.996094 281.933594 250.910156 281.933594 C 244.820312 281.933594 239.886719 276.996094 239.886719 270.910156 C 239.886719 264.820312 244.820312 259.886719 250.910156 259.886719 C 256.996094 259.886719 261.933594 264.820312 261.933594 270.910156 "/>
<path style="fill-rule:nonzero;fill:rgb(9.803922%,36.078431%,13.72549%);fill-opacity:1;stroke-width:0.708661;stroke-linecap:round;stroke-linejoin:round;stroke:rgb(9.803922%,36.078431%,13.72549%);stroke-opacity:1;stroke-miterlimit:10;" d="M 334.660156 270.910156 C 334.660156 276.996094 329.726562 281.933594 323.636719 281.933594 C 317.546875 281.933594 312.613281 276.996094 312.613281 270.910156 C 312.613281 264.820312 317.546875 259.886719 323.636719 259.886719 C 329.726562 259.886719 334.660156 264.820312 334.660156 270.910156 "/>
<path style="fill-rule:nonzero;fill:rgb(9.803922%,36.078431%,13.72549%);fill-opacity:1;stroke-width:0.708661;stroke-linecap:round;stroke-linejoin:round;stroke:rgb(9.803922%,36.078431%,13.72549%);stroke-opacity:1;stroke-miterlimit:10;" d="M 407.386719 270.910156 C 407.386719 276.996094 402.453125 281.933594 396.363281 281.933594 C 390.273438 281.933594 385.339844 276.996094 385.339844 270.910156 C 385.339844 264.820312 390.273438 259.886719 396.363281 259.886719 C 402.453125 259.886719 407.386719 264.820312 407.386719 270.910156 "/>
<path style="fill-rule:nonzero;fill:rgb(9.803922%,36.078431%,13.72549%);fill-opacity:1;stroke-width:0.708661;stroke-linecap:round;stroke-linejoin:round;stroke:rgb(9.803922%,36.078431%,13.72549%);stroke-opacity:1;stroke-miterlimit:10;" d="M 480.113281 270.910156 C 480.113281 276.996094 475.179688 281.933594 469.089844 281.933594 C 463.003906 281.933594 458.066406 276.996094 458.066406 270.910156 C 458.066406 264.820312 463.003906 259.886719 469.089844 259.886719 C 475.179688 259.886719 480.113281 264.820312 480.113281 270.910156 "/>
<path style="fill-rule:nonzero;fill:rgb(9.803922%,36.078431%,13.72549%);fill-opacity:1;stroke-width:0.708661;stroke-linecap:round;stroke-linejoin:round;stroke:rgb(9.803922%,36.078431%,13.72549%);stroke-opacity:1;stroke-miterlimit:10;" d="M 552.84375 270.910156 C 552.84375 276.996094 547.90625 281.933594 541.816406 281.933594 C 535.730469 281.933594 530.792969 276.996094 530.792969 270.910156 C 530.792969 264.820312 535.730469 259.886719 541.816406 259.886719 C 547.90625 259.886719 552.84375 264.820312 552.84375 270.910156 "/>
<path style="fill-rule:nonzero;fill:rgb(9.803922%,36.078431%,13.72549%);fill-opacity:1;stroke-width:0.708661;stroke-linecap:round;stroke-linejoin:round;stroke:rgb(9.803922%,36.078431%,13.72549%);stroke-opacity:1;stroke-miterlimit:10;" d="M 625.570312 270.910156 C 625.570312 276.996094 620.632812 281.933594 614.546875 281.933594 C 608.457031 281.933594 603.519531 276.996094 603.519531 270.910156 C 603.519531 264.820312 608.457031 259.886719 614.546875 259.886719 C 620.632812 259.886719 625.570312 264.820312 625.570312 270.910156 "/>
<path style="fill-rule:nonzero;fill:rgb(9.803922%,36.078431%,13.72549%);fill-opacity:1;stroke-width:0.708661;stroke-linecap:round;stroke-linejoin:round;stroke:rgb(9.803922%,36.078431%,13.72549%);stroke-opacity:1;stroke-miterlimit:10;" d="M 698.296875 270.910156 C 698.296875 276.996094 693.359375 281.933594 687.273438 281.933594 C 681.183594 281.933594 676.25 276.996094 676.25 270.910156 C 676.25 264.820312 681.183594 259.886719 687.273438 259.886719 C 693.359375 259.886719 698.296875 264.820312 698.296875 270.910156 "/>
<path style="fill-rule:nonzero;fill:rgb(9.803922%,36.078431%,13.72549%);fill-opacity:1;stroke-width:0.708661;stroke-linecap:round;stroke-linejoin:round;stroke:rgb(9.803922%,36.078431%,13.72549%);stroke-opacity:1;stroke-miterlimit:10;" d="M 43.75 234.546875 C 43.75 240.632812 38.816406 245.570312 32.726562 245.570312 C 26.640625 245.570312 21.703125 240.632812 21.703125 234.546875 C 21.703125 228.457031 26.640625 223.519531 32.726562 223.519531 C 38.816406 223.519531 43.75 228.457031 43.75 234.546875 "/>
<path style="fill-rule:nonzero;fill:rgb(9.803922%,36.078431%,13.72549%);fill-opacity:1;stroke-width:0.708661;stroke-linecap:round;stroke-linejoin:round;stroke:rgb(9.803922%,36.078431%,13.72549%);stroke-opacity:1;stroke-miterlimit:10;" d="M 116.480469 234.546875 C 116.480469 240.632812 111.542969 245.570312 105.453125 245.570312 C 99.367188 245.570312 94.429688 240.632812 94.429688 234.546875 C 94.429688 228.457031 99.367188 223.519531 105.453125 223.519531 C 111.542969 223.519531 116.480469 228.457031 116.480469 234.546875 "/>
<path style="fill-rule:nonzero;fill:rgb(9.803922%,36.078431%,13.72549%);fill-opacity:1;stroke-width:0.708661;stroke-linecap:round;stroke-linejoin:round;stroke:rgb(9.803922%,36.078431%,13.72549%);stroke-opacity:1;stroke-miterlimit:10;" d="M 189.207031 234.546875 C 189.207031 240.632812 184.269531 245.570312 178.183594 245.570312 C 172.09375 245.570312 167.15625 240.632812 167.15625 234.546875 C 167.15625 228.457031 172.09375 223.519531 178.183594 223.519531 C 184.269531 223.519531 189.207031 228.457031 189.207031 234.546875 "/>
<path style="fill-rule:nonzero;fill:rgb(9.803922%,36.078431%,13.72549%);fill-opacity:1;stroke-width:0.708661;stroke-linecap:round;stroke-linejoin:round;stroke:rgb(9.803922%,36.078431%,13.72549%);stroke-opacity:1;stroke-miterlimit:10;" d="M 261.933594 234.546875 C 261.933594 240.632812 256.996094 245.570312 250.910156 245.570312 C 244.820312 245.570312 239.886719 240.632812 239.886719 234.546875 C 239.886719 228.457031 244.820312 223.519531 250.910156 223.519531 C 256.996094 223.519531 261.933594 228.457031 261.933594 234.546875 "/>
<path style="fill-rule:nonzero;fill:rgb(9.803922%,36.078431%,13.72549%);fill-opacity:1;stroke-width:0.708661;stroke-linecap:round;stroke-linejoin:round;stroke:rgb(9.803922%,36.078431%,13.72549%);stroke-opacity:1;stroke-miterlimit:10;" d="M 334.660156 234.546875 C 334.660156 240.632812 329.726562 245.570312 323.636719 245.570312 C 317.546875 245.570312 312.613281 240.632812 312.613281 234.546875 C 312.613281 228.457031 317.546875 223.519531 323.636719 223.519531 C 329.726562 223.519531 334.660156 228.457031 334.660156 234.546875 "/>
<path style="fill-rule:nonzero;fill:rgb(9.803922%,36.078431%,13.72549%);fill-opacity:1;stroke-width:0.708661;stroke-linecap:round;stroke-linejoin:round;stroke:rgb(9.803922%,36.078431%,13.72549%);stroke-opacity:1;stroke-miterlimit:10;" d="M 407.386719 234.546875 C 407.386719 240.632812 402.453125 245.570312 396.363281 245.570312 C 390.273438 245.570312 385.339844 240.632812 385.339844 234.546875 C 385.339844 228.457031 390.273438 223.519531 396.363281 223.519531 C 402.453125 223.519531 407.386719 228.457031 407.386719 234.546875 "/>
<path style="fill-rule:nonzero;fill:rgb(9.803922%,36.078431%,13.72549%);fill-opacity:1;stroke-width:0.708661;stroke-linecap:round;stroke-linejoin:round;stroke:rgb(9.803922%,36.078431%,13.72549%);stroke-opacity:1;stroke-miterlimit:10;" d="M 480.113281 234.546875 C 480.113281 240.632812 475.179688 245.570312 469.089844 245.570312 C 463.003906 245.570312 458.066406 240.632812 458.066406 234.546875 C 458.066406 228.457031 463.003906 223.519531 469.089844 223.519531 C 475.179688 223.519531 480.113281 228.457031 480.113281 234.546875 "/>
<path style="fill-rule:nonzero;fill:rgb(9.803922%,36.078431%,13.72549%);fill-opacity:1;stroke-width:0.708661;stroke-linecap:round;stroke-linejoin:round;stroke:rgb(9.803922%,36.078431%,13.72549%);stroke-opacity:1;stroke-miterlimit:10;" d="M 552.84375 234.546875 C 552.84375 240.632812 547.90625 245.570312 541.816406 245.570312 C 535.730469 245.570312 530.792969 240.632812 530.792969 234.546875 C 530.792969 228.457031 535.730469 223.519531 541.816406 223.519531 C 547.90625 223.519531 552.84375 228.457031 552.84375 234.546875 "/>
<path style="fill-rule:nonzero;fill:rgb(9.803922%,36.078431%,13.72549%);fill-opacity:1;stroke-width:0.708661;stroke-linecap:round;stroke-linejoin:round;stroke:rgb(9.803922%,36.078431%,13.72549%);stroke-opacity:1;stroke-miterlimit:10;" d="M 625.570312 234.546875 C 625.570312 240.632812 620.632812 245.570312 614.546875 245.570312 C 608.457031 245.570312 603.519531 240.632812 603.519531 234.546875 C 603.519531 228.457031 608.457031 223.519531 614.546875 223.519531 C 620.632812 223.519531 625.570312 228.457031 625.570312 234.546875 "/>
<path style="fill-rule:nonzero;fill:rgb(9.803922%,36.078431%,13.72549%);fill-opacity:1;stroke-width:0.708661;stroke-linecap:round;stroke-linejoin:round;stroke:rgb(9.803922%,36.078431%,13.72549%);stroke-opacity:1;stroke-miterlimit:10;" d="M 698.296875 234.546875 C 698.296875 240.632812 693.359375 245.570312 687.273438 245.570312 C 681.183594 245.570312 676.25 240.632812 676.25 234.546875 C 676.25 228.457031 681.183594 223.519531 687.273438 223.519531 C 693.359375 223.519531 698.296875 228.457031 698.296875 234.546875 "/>
<path style="fill-rule:nonzero;fill:rgb(9.803922%,36.078431%,13.72549%);fill-opacity:1;stroke-width:0.708661;stroke-linecap:round;stroke-linejoin:round;stroke:rgb(9.803922%,36.078431%,13.72549%);stroke-opacity:1;stroke-miterlimit:10;" d="M 43.75 198.183594 C 43.75 204.269531 38.816406 209.207031 32.726562 209.207031 C 26.640625 209.207031 21.703125 204.269531 21.703125 198.183594 C 21.703125 192.09375 26.640625 187.15625 32.726562 187.15625 C 38.816406 187.15625 43.75 192.09375 43.75 198.183594 "/>
<path style="fill-rule:nonzero;fill:rgb(9.803922%,36.078431%,13.72549%);fill-opacity:1;stroke-width:0.708661;stroke-linecap:round;stroke-linejoin:round;stroke:rgb(9.803922%,36.078431%,13.72549%);stroke-opacity:1;stroke-miterlimit:10;" d="M 116.480469 198.183594 C 116.480469 204.269531 111.542969 209.207031 105.453125 209.207031 C 99.367188 209.207031 94.429688 204.269531 94.429688 198.183594 C 94.429688 192.09375 99.367188 187.15625 105.453125 187.15625 C 111.542969 187.15625 116.480469 192.09375 116.480469 198.183594 "/>
<path style="fill-rule:nonzero;fill:rgb(9.803922%,36.078431%,13.72549%);fill-opacity:1;stroke-width:0.708661;stroke-linecap:round;stroke-linejoin:round;stroke:rgb(9.803922%,36.078431%,13.72549%);stroke-opacity:1;stroke-miterlimit:10;" d="M 189.207031 198.183594 C 189.207031 204.269531 184.269531 209.207031 178.183594 209.207031 C 172.09375 209.207031 167.15625 204.269531 167.15625 198.183594 C 167.15625 192.09375 172.09375 187.15625 178.183594 187.15625 C 184.269531 187.15625 189.207031 192.09375 189.207031 198.183594 "/>
<path style="fill-rule:nonzero;fill:rgb(9.803922%,36.078431%,13.72549%);fill-opacity:1;stroke-width:0.708661;stroke-linecap:round;stroke-linejoin:round;stroke:rgb(9.803922%,36.078431%,13.72549%);stroke-opacity:1;stroke-miterlimit:10;" d="M 261.933594 198.183594 C 261.933594 204.269531 256.996094 209.207031 250.910156 209.207031 C 244.820312 209.207031 239.886719 204.269531 239.886719 198.183594 C 239.886719 192.09375 244.820312 187.15625 250.910156 187.15625 C 256.996094 187.15625 261.933594 192.09375 261.933594 198.183594 "/>
<path style="fill-rule:nonzero;fill:rgb(9.803922%,36.078431%,13.72549%);fill-opacity:1;stroke-width:0.708661;stroke-linecap:round;stroke-linejoin:round;stroke:rgb(9.803922%,36.078431%,13.72549%);stroke-opacity:1;stroke-miterlimit:10;" d="M 334.660156 198.183594 C 334.660156 204.269531 329.726562 209.207031 323.636719 209.207031 C 317.546875 209.207031 312.613281 204.269531 312.613281 198.183594 C 312.613281 192.09375 317.546875 187.15625 323.636719 187.15625 C 329.726562 187.15625 334.660156 192.09375 334.660156 198.183594 "/>
<path style="fill-rule:nonzero;fill:rgb(9.803922%,36.078431%,13.72549%);fill-opacity:1;stroke-width:0.708661;stroke-linecap:round;stroke-linejoin:round;stroke:rgb(9.803922%,36.078431%,13.72549%);stroke-opacity:1;stroke-miterlimit:10;" d="M 407.386719 198.183594 C 407.386719 204.269531 402.453125 209.207031 396.363281 209.207031 C 390.273438 209.207031 385.339844 204.269531 385.339844 198.183594 C 385.339844 192.09375 390.273438 187.15625 396.363281 187.15625 C 402.453125 187.15625 407.386719 192.09375 407.386719 198.183594 "/>
<path style="fill-rule:nonzero;fill:rgb(9.803922%,36.078431%,13.72549%);fill-opacity:1;stroke-width:0.708661;stroke-linecap:round;stroke-linejoin:round;stroke:rgb(9.803922%,36.078431%,13.72549%);stroke-opacity:1;stroke-miterlimit:10;" d="M 480.113281 198.183594 C 480.113281 204.269531 475.179688 209.207031 469.089844 209.207031 C 463.003906 209.207031 458.066406 204.269531 458.066406 198.183594 C 458.066406 192.09375 463.003906 187.15625 469.089844 187.15625 C 475.179688 187.15625 480.113281 192.09375 480.113281 198.183594 "/>
<path style="fill-rule:nonzero;fill:rgb(9.803922%,36.078431%,13.72549%);fill-opacity:1;stroke-width:0.708661;stroke-linecap:round;stroke-linejoin:round;stroke:rgb(9.803922%,36.078431%,13.72549%);stroke-opacity:1;stroke-miterlimit:10;" d="M 552.84375 198.183594 C 552.84375 204.269531 547.90625 209.207031 541.816406 209.207031 C 535.730469 209.207031 530.792969 204.269531 530.792969 198.183594 C 530.792969 192.09375 535.730469 187.15625 541.816406 187.15625 C 547.90625 187.15625 552.84375 192.09375 552.84375 198.183594 "/>
<path style="fill-rule:nonzero;fill:rgb(9.803922%,36.078431%,13.72549%);fill-opacity:1;stroke-width:0.708661;stroke-linecap:round;stroke-linejoin:round;stroke:rgb(9.803922%,36.078431%,13.72549%);stroke-opacity:1;stroke-miterlimit:10;" d="M 625.570312 198.183594 C 625.570312 204.269531 620.632812 209.207031 614.546875 209.207031 C 608.457031 209.207031 603.519531 204.269531 603.519531 198.183594 C 603.519531 192.09375 608.457031 187.15625 614.546875 187.15625 C 620.632812 187.15625 625.570312 192.09375 625.570312 198.183594 "/>
<path style="fill-rule:nonzero;fill:rgb(9.803922%,36.078431%,13.72549%);fill-opacity:1;stroke-width:0.708661;stroke-linecap:round;stroke-linejoin:round;stroke:rgb(9.803922%,36.078431%,13.72549%);stroke-opacity:1;stroke-miterlimit:10;" d="M 698.296875 198.183594 C 698.296875 204.269531 693.359375 209.207031 687.273438 209.207031 C 681.183594 209.207031 676.25 204.269531 676.25 198.183594 C 676.25 192.09375 681.183594 187.15625 687.273438 187.15625 C 693.359375 187.15625 698.296875 192.09375 698.296875 198.183594 "/>
<path style="fill-rule:nonzero;fill:rgb(9.803922%,36.078431%,13.72549%);fill-opacity:1;stroke-width:0.708661;stroke-linecap:round;stroke-linejoin:round;stroke:rgb(9.803922%,36.078431%,13.72549%);stroke-opacity:1;stroke-miterlimit:10;" d="M 43.75 161.816406 C 43.75 167.90625 38.816406 172.84375 32.726562 172.84375 C 26.640625 172.84375 21.703125 167.90625 21.703125 161.816406 C 21.703125 155.730469 26.640625 150.792969 32.726562 150.792969 C 38.816406 150.792969 43.75 155.730469 43.75 161.816406 "/>
<path style="fill-rule:nonzero;fill:rgb(9.803922%,36.078431%,13.72549%);fill-opacity:1;stroke-width:0.708661;stroke-linecap:round;stroke-linejoin:round;stroke:rgb(9.803922%,36.078431%,13.72549%);stroke-opacity:1;stroke-miterlimit:10;" d="M 116.480469 161.816406 C 116.480469 167.90625 111.542969 172.84375 105.453125 172.84375 C 99.367188 172.84375 94.429688 167.90625 94.429688 161.816406 C 94.429688 155.730469 99.367188 150.792969 105.453125 150.792969 C 111.542969 150.792969 116.480469 155.730469 116.480469 161.816406 "/>
<path style="fill-rule:nonzero;fill:rgb(9.803922%,36.078431%,13.72549%);fill-opacity:1;stroke-width:0.708661;stroke-linecap:round;stroke-linejoin:round;stroke:rgb(9.803922%,36.078431%,13.72549%);stroke-opacity:1;stroke-miterlimit:10;" d="M 189.207031 161.816406 C 189.207031 167.90625 184.269531 172.84375 178.183594 172.84375 C 172.09375 172.84375 167.15625 167.90625 167.15625 161.816406 C 167.15625 155.730469 172.09375 150.792969 178.183594 150.792969 C 184.269531 150.792969 189.207031 155.730469 189.207031 161.816406 "/>
<path style="fill-rule:nonzero;fill:rgb(9.803922%,36.078431%,13.72549%);fill-opacity:1;stroke-width:0.708661;stroke-linecap:round;stroke-linejoin:round;stroke:rgb(9.803922%,36.078431%,13.72549%);stroke-opacity:1;stroke-miterlimit:10;" d="M 261.933594 161.816406 C 261.933594 167.90625 256.996094 172.84375 250.910156 172.84375 C 244.820312 172.84375 239.886719 167.90625 239.886719 161.816406 C 239.886719 155.730469 244.820312 150.792969 250.910156 150.792969 C 256.996094 150.792969 261.933594 155.730469 261.933594 161.816406 "/>
<path style="fill-rule:nonzero;fill:rgb(9.803922%,36.078431%,13.72549%);fill-opacity:1;stroke-width:0.708661;stroke-linecap:round;stroke-linejoin:round;stroke:rgb(9.803922%,36.078431%,13.72549%);stroke-opacity:1;stroke-miterlimit:10;" d="M 334.660156 161.816406 C 334.660156 167.90625 329.726562 172.84375 323.636719 172.84375 C 317.546875 172.84375 312.613281 167.90625 312.613281 161.816406 C 312.613281 155.730469 317.546875 150.792969 323.636719 150.792969 C 329.726562 150.792969 334.660156 155.730469 334.660156 161.816406 "/>
<path style="fill-rule:nonzero;fill:rgb(9.803922%,36.078431%,13.72549%);fill-opacity:1;stroke-width:0.708661;stroke-linecap:round;stroke-linejoin:round;stroke:rgb(9.803922%,36.078431%,13.72549%);stroke-opacity:1;stroke-miterlimit:10;" d="M 407.386719 161.816406 C 407.386719 167.90625 402.453125 172.84375 396.363281 172.84375 C 390.273438 172.84375 385.339844 167.90625 385.339844 161.816406 C 385.339844 155.730469 390.273438 150.792969 396.363281 150.792969 C 402.453125 150.792969 407.386719 155.730469 407.386719 161.816406 "/>
<path style="fill-rule:nonzero;fill:rgb(9.803922%,36.078431%,13.72549%);fill-opacity:1;stroke-width:0.708661;stroke-linecap:round;stroke-linejoin:round;stroke:rgb(9.803922%,36.078431%,13.72549%);stroke-opacity:1;stroke-miterlimit:10;" d="M 480.113281 161.816406 C 480.113281 167.90625 475.179688 172.84375 469.089844 172.84375 C 463.003906 172.84375 458.066406 167.90625 458.066406 161.816406 C 458.066406 155.730469 463.003906 150.792969 469.089844 150.792969 C 475.179688 150.792969 480.113281 155.730469 480.113281 161.816406 "/>
<path style="fill-rule:nonzero;fill:rgb(9.803922%,36.078431%,13.72549%);fill-opacity:1;stroke-width:0.708661;stroke-linecap:round;stroke-linejoin:round;stroke:rgb(9.803922%,36.078431%,13.72549%);stroke-opacity:1;stroke-miterlimit:10;" d="M 552.84375 161.816406 C 552.84375 167.90625 547.90625 172.84375 541.816406 172.84375 C 535.730469 172.84375 530.792969 167.90625 530.792969 161.816406 C 530.792969 155.730469 535.730469 150.792969 541.816406 150.792969 C 547.90625 150.792969 552.84375 155.730469 552.84375 161.816406 "/>
<path style="fill-rule:nonzero;fill:rgb(9.803922%,36.078431%,13.72549%);fill-opacity:1;stroke-width:0.708661;stroke-linecap:round;stroke-linejoin:round;stroke:rgb(9.803922%,36.078431%,13.72549%);stroke-opacity:1;stroke-miterlimit:10;" d="M 625.570312 161.816406 C 625.570312 167.90625 620.632812 172.84375 614.546875 172.84375 C 608.457031 172.84375 603.519531 167.90625 603.519531 161.816406 C 603.519531 155.730469 608.457031 150.792969 614.546875 150.792969 C 620.632812 150.792969 625.570312 155.730469 625.570312 161.816406 "/>
<path style="fill-rule:nonzero;fill:rgb(9.803922%,36.078431%,13.72549%);fill-opacity:1;stroke-width:0.708661;stroke-linecap:round;stroke-linejoin:round;stroke:rgb(9.803922%,36.078431%,13.72549%);stroke-opacity:1;stroke-miterlimit:10;" d="M 698.296875 161.816406 C 698.296875 167.90625 693.359375 172.84375 687.273438 172.84375 C 681.183594 172.84375 676.25 167.90625 676.25 161.816406 C 676.25 155.730469 681.183594 150.792969 687.273438 150.792969 C 693.359375 150.792969 698.296875 155.730469 698.296875 161.816406 "/>
<path style="fill-rule:nonzero;fill:rgb(9.803922%,36.078431%,13.72549%);fill-opacity:1;stroke-width:0.708661;stroke-linecap:round;stroke-linejoin:round;stroke:rgb(9.803922%,36.078431%,13.72549%);stroke-opacity:1;stroke-miterlimit:10;" d="M 43.75 125.453125 C 43.75 131.542969 38.816406 136.480469 32.726562 136.480469 C 26.640625 136.480469 21.703125 131.542969 21.703125 125.453125 C 21.703125 119.367188 26.640625 114.429688 32.726562 114.429688 C 38.816406 114.429688 43.75 119.367188 43.75 125.453125 "/>
<path style="fill-rule:nonzero;fill:rgb(9.803922%,36.078431%,13.72549%);fill-opacity:1;stroke-width:0.708661;stroke-linecap:round;stroke-linejoin:round;stroke:rgb(9.803922%,36.078431%,13.72549%);stroke-opacity:1;stroke-miterlimit:10;" d="M 116.480469 125.453125 C 116.480469 131.542969 111.542969 136.480469 105.453125 136.480469 C 99.367188 136.480469 94.429688 131.542969 94.429688 125.453125 C 94.429688 119.367188 99.367188 114.429688 105.453125 114.429688 C 111.542969 114.429688 116.480469 119.367188 116.480469 125.453125 "/>
<path style="fill-rule:nonzero;fill:rgb(9.803922%,36.078431%,13.72549%);fill-opacity:1;stroke-width:0.708661;stroke-linecap:round;stroke-linejoin:round;stroke:rgb(9.803922%,36.078431%,13.72549%);stroke-opacity:1;stroke-miterlimit:10;" d="M 189.207031 125.453125 C 189.207031 131.542969 184.269531 136.480469 178.183594 136.480469 C 172.09375 136.480469 167.15625 131.542969 167.15625 125.453125 C 167.15625 119.367188 172.09375 114.429688 178.183594 114.429688 C 184.269531 114.429688 189.207031 119.367188 189.207031 125.453125 "/>
<path style="fill-rule:nonzero;fill:rgb(9.803922%,36.078431%,13.72549%);fill-opacity:1;stroke-width:0.708661;stroke-linecap:round;stroke-linejoin:round;stroke:rgb(9.803922%,36.078431%,13.72549%);stroke-opacity:1;stroke-miterlimit:10;" d="M 261.933594 125.453125 C 261.933594 131.542969 256.996094 136.480469 250.910156 136.480469 C 244.820312 136.480469 239.886719 131.542969 239.886719 125.453125 C 239.886719 119.367188 244.820312 114.429688 250.910156 114.429688 C 256.996094 114.429688 261.933594 119.367188 261.933594 125.453125 "/>
<path style="fill-rule:nonzero;fill:rgb(9.803922%,36.078431%,13.72549%);fill-opacity:1;stroke-width:0.708661;stroke-linecap:round;stroke-linejoin:round;stroke:rgb(9.803922%,36.078431%,13.72549%);stroke-opacity:1;stroke-miterlimit:10;" d="M 334.660156 125.453125 C 334.660156 131.542969 329.726562 136.480469 323.636719 136.480469 C 317.546875 136.480469 312.613281 131.542969 312.613281 125.453125 C 312.613281 119.367188 317.546875 114.429688 323.636719 114.429688 C 329.726562 114.429688 334.660156 119.367188 334.660156 125.453125 "/>
<path style="fill-rule:nonzero;fill:rgb(9.803922%,36.078431%,13.72549%);fill-opacity:1;stroke-width:0.708661;stroke-linecap:round;stroke-linejoin:round;stroke:rgb(9.803922%,36.078431%,13.72549%);stroke-opacity:1;stroke-miterlimit:10;" d="M 407.386719 125.453125 C 407.386719 131.542969 402.453125 136.480469 396.363281 136.480469 C 390.273438 136.480469 385.339844 131.542969 385.339844 125.453125 C 385.339844 119.367188 390.273438 114.429688 396.363281 114.429688 C 402.453125 114.429688 407.386719 119.367188 407.386719 125.453125 "/>
<path style="fill-rule:nonzero;fill:rgb(9.803922%,36.078431%,13.72549%);fill-opacity:1;stroke-width:0.708661;stroke-linecap:round;stroke-linejoin:round;stroke:rgb(9.803922%,36.078431%,13.72549%);stroke-opacity:1;stroke-miterlimit:10;" d="M 480.113281 125.453125 C 480.113281 131.542969 475.179688 136.480469 469.089844 136.480469 C 463.003906 136.480469 458.066406 131.542969 458.066406 125.453125 C 458.066406 119.367188 463.003906 114.429688 469.089844 114.429688 C 475.179688 114.429688 480.113281 119.367188 480.113281 125.453125 "/>
<path style="fill-rule:nonzero;fill:rgb(9.803922%,36.078431%,13.72549%);fill-opacity:1;stroke-width:0.708661;stroke-linecap:round;stroke-linejoin:round;stroke:rgb(9.803922%,36.078431%,13.72549%);stroke-opacity:1;stroke-miterlimit:10;" d="M 552.84375 125.453125 C 552.84375 131.542969 547.90625 136.480469 541.816406 136.480469 C 535.730469 136.480469 530.792969 131.542969 530.792969 125.453125 C 530.792969 119.367188 535.730469 114.429688 541.816406 114.429688 C 547.90625 114.429688 552.84375 119.367188 552.84375 125.453125 "/>
<path style="fill-rule:nonzero;fill:rgb(9.803922%,36.078431%,13.72549%);fill-opacity:1;stroke-width:0.708661;stroke-linecap:round;stroke-linejoin:round;stroke:rgb(9.803922%,36.078431%,13.72549%);stroke-opacity:1;stroke-miterlimit:10;" d="M 625.570312 125.453125 C 625.570312 131.542969 620.632812 136.480469 614.546875 136.480469 C 608.457031 136.480469 603.519531 131.542969 603.519531 125.453125 C 603.519531 119.367188 608.457031 114.429688 614.546875 114.429688 C 620.632812 114.429688 625.570312 119.367188 625.570312 125.453125 "/>
<path style="fill-rule:nonzero;fill:rgb(9.803922%,36.078431%,13.72549%);fill-opacity:1;stroke-width:0.708661;stroke-linecap:round;stroke-linejoin:round;stroke:rgb(9.803922%,36.078431%,13.72549%);stroke-opacity:1;stroke-miterlimit:10;" d="M 698.296875 125.453125 C 698.296875 131.542969 693.359375 136.480469 687.273438 136.480469 C 681.183594 136.480469 676.25 131.542969 676.25 125.453125 C 676.25 119.367188 681.183594 114.429688 687.273438 114.429688 C 693.359375 114.429688 698.296875 119.367188 698.296875 125.453125 "/>
<path style="fill-rule:nonzero;fill:rgb(9.803922%,36.078431%,13.72549%);fill-opacity:1;stroke-width:0.708661;stroke-linecap:round;stroke-linejoin:round;stroke:rgb(9.803922%,36.078431%,13.72549%);stroke-opacity:1;stroke-miterlimit:10;" d="M 43.75 89.089844 C 43.75 95.179688 38.816406 100.113281 32.726562 100.113281 C 26.640625 100.113281 21.703125 95.179688 21.703125 89.089844 C 21.703125 83.003906 26.640625 78.066406 32.726562 78.066406 C 38.816406 78.066406 43.75 83.003906 43.75 89.089844 "/>
<path style="fill-rule:nonzero;fill:rgb(9.803922%,36.078431%,13.72549%);fill-opacity:1;stroke-width:0.708661;stroke-linecap:round;stroke-linejoin:round;stroke:rgb(9.803922%,36.078431%,13.72549%);stroke-opacity:1;stroke-miterlimit:10;" d="M 116.480469 89.089844 C 116.480469 95.179688 111.542969 100.113281 105.453125 100.113281 C 99.367188 100.113281 94.429688 95.179688 94.429688 89.089844 C 94.429688 83.003906 99.367188 78.066406 105.453125 78.066406 C 111.542969 78.066406 116.480469 83.003906 116.480469 89.089844 "/>
<path style="fill-rule:nonzero;fill:rgb(9.803922%,36.078431%,13.72549%);fill-opacity:1;stroke-width:0.708661;stroke-linecap:round;stroke-linejoin:round;stroke:rgb(9.803922%,36.078431%,13.72549%);stroke-opacity:1;stroke-miterlimit:10;" d="M 189.207031 89.089844 C 189.207031 95.179688 184.269531 100.113281 178.183594 100.113281 C 172.09375 100.113281 167.15625 95.179688 167.15625 89.089844 C 167.15625 83.003906 172.09375 78.066406 178.183594 78.066406 C 184.269531 78.066406 189.207031 83.003906 189.207031 89.089844 "/>
<path style="fill-rule:nonzero;fill:rgb(9.803922%,36.078431%,13.72549%);fill-opacity:1;stroke-width:0.708661;stroke-linecap:round;stroke-linejoin:round;stroke:rgb(9.803922%,36.078431%,13.72549%);stroke-opacity:1;stroke-miterlimit:10;" d="M 261.933594 89.089844 C 261.933594 95.179688 256.996094 100.113281 250.910156 100.113281 C 244.820312 100.113281 239.886719 95.179688 239.886719 89.089844 C 239.886719 83.003906 244.820312 78.066406 250.910156 78.066406 C 256.996094 78.066406 261.933594 83.003906 261.933594 89.089844 "/>
<path style="fill-rule:nonzero;fill:rgb(9.803922%,36.078431%,13.72549%);fill-opacity:1;stroke-width:0.708661;stroke-linecap:round;stroke-linejoin:round;stroke:rgb(9.803922%,36.078431%,13.72549%);stroke-opacity:1;stroke-miterlimit:10;" d="M 334.660156 89.089844 C 334.660156 95.179688 329.726562 100.113281 323.636719 100.113281 C 317.546875 100.113281 312.613281 95.179688 312.613281 89.089844 C 312.613281 83.003906 317.546875 78.066406 323.636719 78.066406 C 329.726562 78.066406 334.660156 83.003906 334.660156 89.089844 "/>
<path style="fill-rule:nonzero;fill:rgb(9.803922%,36.078431%,13.72549%);fill-opacity:1;stroke-width:0.708661;stroke-linecap:round;stroke-linejoin:round;stroke:rgb(9.803922%,36.078431%,13.72549%);stroke-opacity:1;stroke-miterlimit:10;" d="M 407.386719 89.089844 C 407.386719 95.179688 402.453125 100.113281 396.363281 100.113281 C 390.273438 100.113281 385.339844 95.179688 385.339844 89.089844 C 385.339844 83.003906 390.273438 78.066406 396.363281 78.066406 C 402.453125 78.066406 407.386719 83.003906 407.386719 89.089844 "/>
<path style="fill-rule:nonzero;fill:rgb(9.803922%,36.078431%,13.72549%);fill-opacity:1;stroke-width:0.708661;stroke-linecap:round;stroke-linejoin:round;stroke:rgb(9.803922%,36.078431%,13.72549%);stroke-opacity:1;stroke-miterlimit:10;" d="M 480.113281 89.089844 C 480.113281 95.179688 475.179688 100.113281 469.089844 100.113281 C 463.003906 100.113281 458.066406 95.179688 458.066406 89.089844 C 458.066406 83.003906 463.003906 78.066406 469.089844 78.066406 C 475.179688 78.066406 480.113281 83.003906 480.113281 89.089844 "/>
<path style="fill-rule:nonzero;fill:rgb(9.803922%,36.078431%,13.72549%);fill-opacity:1;stroke-width:0.708661;stroke-linecap:round;stroke-linejoin:round;stroke:rgb(9.803922%,36.078431%,13.72549%);stroke-opacity:1;stroke-miterlimit:10;" d="M 552.84375 89.089844 C 552.84375 95.179688 547.90625 100.113281 541.816406 100.113281 C 535.730469 100.113281 530.792969 95.179688 530.792969 89.089844 C 530.792969 83.003906 535.730469 78.066406 541.816406 78.066406 C 547.90625 78.066406 552.84375 83.003906 552.84375 89.089844 "/>
<path style="fill-rule:nonzero;fill:rgb(9.803922%,36.078431%,13.72549%);fill-opacity:1;stroke-width:0.708661;stroke-linecap:round;stroke-linejoin:round;stroke:rgb(9.803922%,36.078431%,13.72549%);stroke-opacity:1;stroke-miterlimit:10;" d="M 625.570312 89.089844 C 625.570312 95.179688 620.632812 100.113281 614.546875 100.113281 C 608.457031 100.113281 603.519531 95.179688 603.519531 89.089844 C 603.519531 83.003906 608.457031 78.066406 614.546875 78.066406 C 620.632812 78.066406 625.570312 83.003906 625.570312 89.089844 "/>
<path style="fill-rule:nonzero;fill:rgb(9.803922%,36.078431%,13.72549%);fill-opacity:1;stroke-width:0.708661;stroke-linecap:round;stroke-linejoin:round;stroke:rgb(9.803922%,36.078431%,13.72549%);stroke-opacity:1;stroke-miterlimit:10;" d="M 698.296875 89.089844 C 698.296875 95.179688 693.359375 100.113281 687.273438 100.113281 C 681.183594 100.113281 676.25 95.179688 676.25 89.089844 C 676.25 83.003906 681.183594 78.066406 687.273438 78.066406 C 693.359375 78.066406 698.296875 83.003906 698.296875 89.089844 "/>
<path style="fill-rule:nonzero;fill:rgb(9.803922%,36.078431%,13.72549%);fill-opacity:1;stroke-width:0.708661;stroke-linecap:round;stroke-linejoin:round;stroke:rgb(9.803922%,36.078431%,13.72549%);stroke-opacity:1;stroke-miterlimit:10;" d="M 43.75 52.726562 C 43.75 58.816406 38.816406 63.75 32.726562 63.75 C 26.640625 63.75 21.703125 58.816406 21.703125 52.726562 C 21.703125 46.640625 26.640625 41.703125 32.726562 41.703125 C 38.816406 41.703125 43.75 46.640625 43.75 52.726562 "/>
<path style="fill-rule:nonzero;fill:rgb(9.803922%,36.078431%,13.72549%);fill-opacity:1;stroke-width:0.708661;stroke-linecap:round;stroke-linejoin:round;stroke:rgb(9.803922%,36.078431%,13.72549%);stroke-opacity:1;stroke-miterlimit:10;" d="M 116.480469 52.726562 C 116.480469 58.816406 111.542969 63.75 105.453125 63.75 C 99.367188 63.75 94.429688 58.816406 94.429688 52.726562 C 94.429688 46.640625 99.367188 41.703125 105.453125 41.703125 C 111.542969 41.703125 116.480469 46.640625 116.480469 52.726562 "/>
<path style="fill-rule:nonzero;fill:rgb(9.803922%,36.078431%,13.72549%);fill-opacity:1;stroke-width:0.708661;stroke-linecap:round;stroke-linejoin:round;stroke:rgb(9.803922%,36.078431%,13.72549%);stroke-opacity:1;stroke-miterlimit:10;" d="M 189.207031 52.726562 C 189.207031 58.816406 184.269531 63.75 178.183594 63.75 C 172.09375 63.75 167.15625 58.816406 167.15625 52.726562 C 167.15625 46.640625 172.09375 41.703125 178.183594 41.703125 C 184.269531 41.703125 189.207031 46.640625 189.207031 52.726562 "/>
<path style="fill-rule:nonzero;fill:rgb(9.803922%,36.078431%,13.72549%);fill-opacity:1;stroke-width:0.708661;stroke-linecap:round;stroke-linejoin:round;stroke:rgb(9.803922%,36.078431%,13.72549%);stroke-opacity:1;stroke-miterlimit:10;" d="M 261.933594 52.726562 C 261.933594 58.816406 256.996094 63.75 250.910156 63.75 C 244.820312 63.75 239.886719 58.816406 239.886719 52.726562 C 239.886719 46.640625 244.820312 41.703125 250.910156 41.703125 C 256.996094 41.703125 261.933594 46.640625 261.933594 52.726562 "/>
<path style="fill-rule:nonzero;fill:rgb(9.803922%,36.078431%,13.72549%);fill-opacity:1;stroke-width:0.708661;stroke-linecap:round;stroke-linejoin:round;stroke:rgb(9.803922%,36.078431%,13.72549%);stroke-opacity:1;stroke-miterlimit:10;" d="M 334.660156 52.726562 C 334.660156 58.816406 329.726562 63.75 323.636719 63.75 C 317.546875 63.75 312.613281 58.816406 312.613281 52.726562 C 312.613281 46.640625 317.546875 41.703125 323.636719 41.703125 C 329.726562 41.703125 334.660156 46.640625 334.660156 52.726562 "/>
<path style="fill-rule:nonzero;fill:rgb(9.803922%,36.078431%,13.72549%);fill-opacity:1;stroke-width:0.708661;stroke-linecap:round;stroke-linejoin:round;stroke:rgb(9.803922%,36.078431%,13.72549%);stroke-opacity:1;stroke-miterlimit:10;" d="M 407.386719 52.726562 C 407.386719 58.816406 402.453125 63.75 396.363281 63.75 C 390.273438 63.75 385.339844 58.816406 385.339844 52.726562 C 385.339844 46.640625 390.273438 41.703125 396.363281 41.703125 C 402.453125 41.703125 407.386719 46.640625 407.386719 52.726562 "/>
<path style="fill-rule:nonzero;fill:rgb(9.803922%,36.078431%,13.72549%);fill-opacity:1;stroke-width:0.708661;stroke-linecap:round;stroke-linejoin:round;stroke:rgb(9.803922%,36.078431%,13.72549%);stroke-opacity:1;stroke-miterlimit:10;" d="M 480.113281 52.726562 C 480.113281 58.816406 475.179688 63.75 469.089844 63.75 C 463.003906 63.75 458.066406 58.816406 458.066406 52.726562 C 458.066406 46.640625 463.003906 41.703125 469.089844 41.703125 C 475.179688 41.703125 480.113281 46.640625 480.113281 52.726562 "/>
<path style="fill-rule:nonzero;fill:rgb(9.803922%,36.078431%,13.72549%);fill-opacity:1;stroke-width:0.708661;stroke-linecap:round;stroke-linejoin:round;stroke:rgb(9.803922%,36.078431%,13.72549%);stroke-opacity:1;stroke-miterlimit:10;" d="M 552.84375 52.726562 C 552.84375 58.816406 547.90625 63.75 541.816406 63.75 C 535.730469 63.75 530.792969 58.816406 530.792969 52.726562 C 530.792969 46.640625 535.730469 41.703125 541.816406 41.703125 C 547.90625 41.703125 552.84375 46.640625 552.84375 52.726562 "/>
<path style="fill-rule:nonzero;fill:rgb(9.803922%,36.078431%,13.72549%);fill-opacity:1;stroke-width:0.708661;stroke-linecap:round;stroke-linejoin:round;stroke:rgb(9.803922%,36.078431%,13.72549%);stroke-opacity:1;stroke-miterlimit:10;" d="M 625.570312 52.726562 C 625.570312 58.816406 620.632812 63.75 614.546875 63.75 C 608.457031 63.75 603.519531 58.816406 603.519531 52.726562 C 603.519531 46.640625 608.457031 41.703125 614.546875 41.703125 C 620.632812 41.703125 625.570312 46.640625 625.570312 52.726562 "/>
<path style="fill-rule:nonzero;fill:rgb(9.803922%,36.078431%,13.72549%);fill-opacity:1;stroke-width:0.708661;stroke-linecap:round;stroke-linejoin:round;stroke:rgb(9.803922%,36.078431%,13.72549%);stroke-opacity:1;stroke-miterlimit:10;" d="M 698.296875 52.726562 C 698.296875 58.816406 693.359375 63.75 687.273438 63.75 C 681.183594 63.75 676.25 58.816406 676.25 52.726562 C 676.25 46.640625 681.183594 41.703125 687.273438 41.703125 C 693.359375 41.703125 698.296875 46.640625 698.296875 52.726562 "/>
<path style="fill-rule:nonzero;fill:rgb(9.803922%,36.078431%,13.72549%);fill-opacity:1;stroke-width:0.708661;stroke-linecap:round;stroke-linejoin:round;stroke:rgb(9.803922%,36.078431%,13.72549%);stroke-opacity:1;stroke-miterlimit:10;" d="M 43.75 16.363281 C 43.75 22.453125 38.816406 27.386719 32.726562 27.386719 C 26.640625 27.386719 21.703125 22.453125 21.703125 16.363281 C 21.703125 10.273438 26.640625 5.339844 32.726562 5.339844 C 38.816406 5.339844 43.75 10.273438 43.75 16.363281 "/>
<path style="fill-rule:nonzero;fill:rgb(9.803922%,36.078431%,13.72549%);fill-opacity:1;stroke-width:0.708661;stroke-linecap:round;stroke-linejoin:round;stroke:rgb(9.803922%,36.078431%,13.72549%);stroke-opacity:1;stroke-miterlimit:10;" d="M 116.480469 16.363281 C 116.480469 22.453125 111.542969 27.386719 105.453125 27.386719 C 99.367188 27.386719 94.429688 22.453125 94.429688 16.363281 C 94.429688 10.273438 99.367188 5.339844 105.453125 5.339844 C 111.542969 5.339844 116.480469 10.273438 116.480469 16.363281 "/>
<path style="fill-rule:nonzero;fill:rgb(9.803922%,36.078431%,13.72549%);fill-opacity:1;stroke-width:0.708661;stroke-linecap:round;stroke-linejoin:round;stroke:rgb(9.803922%,36.078431%,13.72549%);stroke-opacity:1;stroke-miterlimit:10;" d="M 189.207031 16.363281 C 189.207031 22.453125 184.269531 27.386719 178.183594 27.386719 C 172.09375 27.386719 167.15625 22.453125 167.15625 16.363281 C 167.15625 10.273438 172.09375 5.339844 178.183594 5.339844 C 184.269531 5.339844 189.207031 10.273438 189.207031 16.363281 "/>
<path style="fill-rule:nonzero;fill:rgb(9.803922%,36.078431%,13.72549%);fill-opacity:1;stroke-width:0.708661;stroke-linecap:round;stroke-linejoin:round;stroke:rgb(9.803922%,36.078431%,13.72549%);stroke-opacity:1;stroke-miterlimit:10;" d="M 261.933594 16.363281 C 261.933594 22.453125 256.996094 27.386719 250.910156 27.386719 C 244.820312 27.386719 239.886719 22.453125 239.886719 16.363281 C 239.886719 10.273438 244.820312 5.339844 250.910156 5.339844 C 256.996094 5.339844 261.933594 10.273438 261.933594 16.363281 "/>
<path style="fill-rule:nonzero;fill:rgb(9.803922%,36.078431%,13.72549%);fill-opacity:1;stroke-width:0.708661;stroke-linecap:round;stroke-linejoin:round;stroke:rgb(9.803922%,36.078431%,13.72549%);stroke-opacity:1;stroke-miterlimit:10;" d="M 334.660156 16.363281 C 334.660156 22.453125 329.726562 27.386719 323.636719 27.386719 C 317.546875 27.386719 312.613281 22.453125 312.613281 16.363281 C 312.613281 10.273438 317.546875 5.339844 323.636719 5.339844 C 329.726562 5.339844 334.660156 10.273438 334.660156 16.363281 "/>
<path style="fill-rule:nonzero;fill:rgb(9.803922%,36.078431%,13.72549%);fill-opacity:1;stroke-width:0.708661;stroke-linecap:round;stroke-linejoin:round;stroke:rgb(9.803922%,36.078431%,13.72549%);stroke-opacity:1;stroke-miterlimit:10;" d="M 407.386719 16.363281 C 407.386719 22.453125 402.453125 27.386719 396.363281 27.386719 C 390.273438 27.386719 385.339844 22.453125 385.339844 16.363281 C 385.339844 10.273438 390.273438 5.339844 396.363281 5.339844 C 402.453125 5.339844 407.386719 10.273438 407.386719 16.363281 "/>
<path style="fill-rule:nonzero;fill:rgb(9.803922%,36.078431%,13.72549%);fill-opacity:1;stroke-width:0.708661;stroke-linecap:round;stroke-linejoin:round;stroke:rgb(9.803922%,36.078431%,13.72549%);stroke-opacity:1;stroke-miterlimit:10;" d="M 480.113281 16.363281 C 480.113281 22.453125 475.179688 27.386719 469.089844 27.386719 C 463.003906 27.386719 458.066406 22.453125 458.066406 16.363281 C 458.066406 10.273438 463.003906 5.339844 469.089844 5.339844 C 475.179688 5.339844 480.113281 10.273438 480.113281 16.363281 "/>
<path style="fill-rule:nonzero;fill:rgb(9.803922%,36.078431%,13.72549%);fill-opacity:1;stroke-width:0.708661;stroke-linecap:round;stroke-linejoin:round;stroke:rgb(9.803922%,36.078431%,13.72549%);stroke-opacity:1;stroke-miterlimit:10;" d="M 552.84375 16.363281 C 552.84375 22.453125 547.90625 27.386719 541.816406 27.386719 C 535.730469 27.386719 530.792969 22.453125 530.792969 16.363281 C 530.792969 10.273438 535.730469 5.339844 541.816406 5.339844 C 547.90625 5.339844 552.84375 10.273438 552.84375 16.363281 "/>
<path style="fill-rule:nonzero;fill:rgb(9.803922%,36.078431%,13.72549%);fill-opacity:1;stroke-width:0.708661;stroke-linecap:round;stroke-linejoin:round;stroke:rgb(9.803922%,36.078431%,13.72549%);stroke-opacity:1;stroke-miterlimit:10;" d="M 625.570312 16.363281 C 625.570312 22.453125 620.632812 27.386719 614.546875 27.386719 C 608.457031 27.386719 603.519531 22.453125 603.519531 16.363281 C 603.519531 10.273438 608.457031 5.339844 614.546875 5.339844 C 620.632812 5.339844 625.570312 10.273438 625.570312 16.363281 "/>
<path style="fill-rule:nonzero;fill:rgb(9.803922%,36.078431%,13.72549%);fill-opacity:1;stroke-width:0.708661;stroke-linecap:round;stroke-linejoin:round;stroke:rgb(9.803922%,36.078431%,13.72549%);stroke-opacity:1;stroke-miterlimit:10;" d="M 698.296875 16.363281 C 698.296875 22.453125 693.359375 27.386719 687.273438 27.386719 C 681.183594 27.386719 676.25 22.453125 676.25 16.363281 C 676.25 10.273438 681.183594 5.339844 687.273438 5.339844 C 693.359375 5.339844 698.296875 10.273438 698.296875 16.363281 "/>
</g>
</svg>
